<?xml version="1.0" encoding="utf-8"?>
<!-- Generator: Adobe Illustrator 24.1.1, SVG Export Plug-In . SVG Version: 6.00 Build 0)  -->
<svg version="1.1" id="Layer_1" xmlns="http://www.w3.org/2000/svg" xmlns:xlink="http://www.w3.org/1999/xlink" x="0px" y="0px"
	 viewBox="0 0 512 512" style="enable-background:new 0 0 512 512;" xml:space="preserve">
<g>
	<path d="M256,377.3c-66.8,0-121.3-54.4-121.3-121.3S189.1,134.8,256,134.8S377.2,189.2,377.2,256S322.8,377.3,256,377.3z
		 M256,161.7c-52,0-94.3,42.3-94.3,94.3s42.3,94.3,94.3,94.3s94.3-42.3,94.3-94.3S308,161.7,256,161.7z"/>
	<path d="M471.5,458.1H40.4C18.1,458.1,0,440,0,417.7V148.2c0-22.3,18.1-40.4,40.4-40.4h40.4c11.2,0,28.6-7.2,36.5-15.1l15.8-15.8
		c13.1-13.1,37-23,55.5-23h134.7c18.5,0,42.4,9.9,55.5,23l15.8,15.8c7.9,7.9,25.3,15.1,36.5,15.1h40.4c22.3,0,40.4,18.1,40.4,40.4
		v269.4C512,440,493.9,458.1,471.5,458.1L471.5,458.1z M40.4,134.8c-7.4,0-13.5,6-13.5,13.5v269.4c0,7.4,6,13.5,13.5,13.5h431.1
		c7.4,0,13.5-6,13.5-13.5V148.2c0-7.4-6-13.5-13.5-13.5h-40.4c-18.5,0-42.4-9.9-55.5-23L359.8,96c-7.9-7.9-25.3-15.1-36.5-15.1
		H188.6c-11.2,0-28.6,7.2-36.5,15.1l-15.8,15.8c-13.1,13.1-37,23-55.5,23H40.4L40.4,134.8z"/>
</g>
</svg>
