<svg xmlns="http://www.w3.org/2000/svg" xmlns:xlink="http://www.w3.org/1999/xlink" viewBox="0,0,256,256" width="32px" height="32px"><g fill-opacity="0.63137" fill="#000000" fill-rule="nonzero" stroke="none" stroke-width="1" stroke-linecap="butt" stroke-linejoin="miter" stroke-miterlimit="10" stroke-dasharray="" stroke-dashoffset="0" font-family="none" font-weight="none" font-size="none" text-anchor="none" style="mix-blend-mode: normal"><g transform="scale(8,8)"><path d="M13.80078,2.40039l-1.60156,1.19922l1.80078,2.40039h-2c-3.85433,0 -7,3.14567 -7,7v8c0,3.85433 3.14567,7 7,7h8c3.85433,0 7,-3.14567 7,-7v-8c0,-3.85433 -3.14567,-7 -7,-7h-2l1.80078,-2.40039l-1.60156,-1.19922l-2.19922,2.93164zM12,8h3.9707h4.0293c2.77367,0 5,2.22633 5,5v8c0,2.77367 -2.22633,5 -5,5h-8c-2.77367,0 -5,-2.22633 -5,-5v-8c0,-2.77367 2.22633,-5 5,-5zM17,13.67383l-8.27539,2.36523l0.55078,1.92188l5.72461,-1.63477v4l8.27539,-2.36523l-0.55078,-1.92188l-5.72461,1.63477z"></path></g></g></svg>